<svg xmlns="http://www.w3.org/2000/svg" width="172" height="57" fill="none"><rect width="172" height="56" y=".5" fill="#fff" fill-opacity=".1" rx="18"/><path fill="#fff" d="M52.261 35.5V20.954h5.086c1.013 0 1.849.176 2.507.526.658.346 1.148.812 1.47 1.4a3.94 3.94 0 0 1 .483 1.938c0 .625-.111 1.141-.334 1.548-.218.408-.507.73-.867.966a3.946 3.946 0 0 1-1.157.526V28c.445.028.892.185 1.342.469.45.284.826.691 1.13 1.221.303.53.454 1.18.454 1.946 0 .73-.166 1.385-.497 1.968-.332.582-.855 1.044-1.57 1.385-.715.34-1.645.511-2.791.511h-5.256Zm1.762-1.563h3.494c1.15 0 1.967-.222 2.45-.667.488-.45.732-.994.732-1.634 0-.492-.126-.947-.377-1.363a2.724 2.724 0 0 0-1.072-1.009c-.464-.255-1.013-.383-1.648-.383h-3.58v5.056Zm0-6.59h3.267c.53 0 1.008-.105 1.434-.313.431-.208.772-.502 1.023-.88.256-.38.384-.825.384-1.336 0-.639-.223-1.181-.668-1.626-.445-.45-1.15-.675-2.116-.675h-3.324v4.83ZM65.042 35.5V24.59h1.62v1.649h.113c.199-.54.559-.978 1.08-1.314a3.177 3.177 0 0 1 1.76-.505c.124 0 .278.003.462.008.185.004.325.011.42.02v1.705a4.973 4.973 0 0 0-.391-.063 3.837 3.837 0 0 0-.632-.05c-.53 0-1.004.111-1.42.334-.413.217-.74.52-.98.909a2.45 2.45 0 0 0-.356 1.314V35.5h-1.676Zm11.541.227c-.985 0-1.849-.234-2.592-.703-.739-.469-1.317-1.124-1.733-1.967-.412-.843-.618-1.828-.618-2.955 0-1.136.206-2.128.618-2.976.416-.847.994-1.505 1.733-1.974.743-.469 1.607-.703 2.592-.703.985 0 1.847.234 2.585.703.744.469 1.321 1.127 1.733 1.974.417.848.625 1.84.625 2.976 0 1.127-.208 2.112-.625 2.955-.412.843-.99 1.498-1.733 1.967-.738.469-1.6.703-2.585.703Zm0-1.505c.748 0 1.364-.192 1.847-.576.483-.383.84-.888 1.072-1.513a5.792 5.792 0 0 0 .348-2.03c0-.73-.116-1.41-.348-2.04a3.436 3.436 0 0 0-1.072-1.526c-.483-.388-1.099-.582-1.847-.582s-1.364.194-1.846.582c-.483.388-.84.897-1.073 1.527a5.851 5.851 0 0 0-.348 2.038c0 .73.116 1.407.348 2.031.232.625.59 1.13 1.073 1.513.483.384 1.098.576 1.846.576Zm9.602 1.278-3.323-10.91h1.76l2.359 8.353h.114l2.329-8.352h1.79l2.3 8.324h.115l2.358-8.324h1.76L94.425 35.5h-1.648l-2.386-8.38h-.17l-2.387 8.38h-1.648Zm21.506-8.466-1.506.426a2.768 2.768 0 0 0-.419-.731 2.036 2.036 0 0 0-.738-.597c-.313-.156-.713-.234-1.201-.234-.667 0-1.224.154-1.669.461-.44.303-.66.69-.66 1.158 0 .417.151.746.454.987.303.242.777.443 1.421.604l1.619.398c.976.236 1.702.599 2.181 1.086.478.483.717 1.106.717 1.868 0 .625-.18 1.184-.54 1.676-.355.493-.852.881-1.491 1.165-.64.284-1.383.426-2.23.426-1.113 0-2.034-.241-2.763-.724-.729-.483-1.191-1.189-1.385-2.117l1.591-.397c.151.587.438 1.027.859 1.32.426.294.983.441 1.669.441.781 0 1.402-.166 1.861-.497.464-.336.696-.739.696-1.208a1.27 1.27 0 0 0-.398-.951c-.265-.26-.672-.455-1.221-.583l-1.819-.426c-.999-.236-1.732-.604-2.201-1.1-.464-.502-.696-1.13-.696-1.883a2.7 2.7 0 0 1 .518-1.633c.351-.474.826-.845 1.428-1.115.606-.27 1.292-.405 2.059-.405 1.08 0 1.927.237 2.543.71a3.828 3.828 0 0 1 1.321 1.875Zm7.296 8.693c-1.051 0-1.958-.232-2.72-.696a4.67 4.67 0 0 1-1.755-1.96c-.407-.843-.61-1.823-.61-2.94 0-1.118.203-2.103.61-2.955.412-.857.985-1.524 1.719-2.003.739-.483 1.601-.724 2.585-.724.569 0 1.13.095 1.684.284.554.19 1.058.497 1.512.923.455.422.817.98 1.087 1.676s.405 1.553.405 2.571v.71h-8.409v-1.448h6.704c0-.616-.123-1.165-.369-1.648a2.778 2.778 0 0 0-1.037-1.143c-.445-.28-.971-.42-1.577-.42-.667 0-1.245.166-1.733.498a3.274 3.274 0 0 0-1.115 1.278 3.76 3.76 0 0 0-.39 1.69v.966c0 .824.142 1.523.426 2.095a3.076 3.076 0 0 0 1.2 1.3c.512.294 1.106.44 1.783.44.44 0 .838-.061 1.193-.184.36-.128.67-.317.93-.568.261-.256.462-.573.604-.952l1.619.455a3.58 3.58 0 0 1-.859 1.448 4.19 4.19 0 0 1-1.491.966c-.592.228-1.258.341-1.996.341Z"/></svg>