<svg width="101" height="26" viewBox="0 0 101 26" fill="none" xmlns="http://www.w3.org/2000/svg">
<path d="M36.6017 20.0727H64.4887V14.6146H43.9907V11.7263H62.976V8.34646H43.9907V5.45815H64.4887V0H36.6017V20.0727Z" fill="#000A16"/>
<path d="M31.0922 20.1298V0H23.7153V14.6561H7.37695V0H0V20.1298H27.7737L27.7806 25.6H35.1493V20.1298H31.0922Z" fill="#000A16"/>
<path d="M93.7816 0L84.6778 6.14266L75.5747 0H68.5556V5.45815H72.0986L78.8953 10.0443L72.1228 14.6146H68.5556V20.0727H75.5988L84.6778 13.9459L93.7575 20.0727H100.8V14.6146H97.2328L90.4604 10.0443L97.257 5.45815H100.8V0H93.7816Z" fill="#000A16"/>
</svg>
