<?xml version="1.0" encoding="utf-8"?>
<!-- Generator: Adobe Illustrator 24.0.1, SVG Export Plug-In . SVG Version: 6.00 Build 0)  -->
<svg version="1.1" id="Layer_1" xmlns="http://www.w3.org/2000/svg" xmlns:xlink="http://www.w3.org/1999/xlink" x="0px" y="0px"
	 width="101px" height="26px" viewBox="0 0 101 26" style="enable-background:new 0 0 101 26;" xml:space="preserve">
<style type="text/css">
	.st0{fill:#FFFFFF;}
</style>
<polygon class="st0" points="44,5.5 44,8.3 63,8.3 63,11.7 44,11.7 44,14.6 64.5,14.6 64.5,20.1 36.6,20.1 36.6,0 64.5,0 64.5,5.5 
	"/>
<polygon class="st0" points="35.2,20.1 35.2,25.6 27.8,25.6 27.8,20.1 0,20.1 0,0 7.4,0 7.4,14.7 23.7,14.7 23.7,0 31.1,0 
	31.1,20.1 "/>
<polygon class="st0" points="97.3,5.5 90.5,10 97.2,14.6 100.8,14.6 100.8,20.1 93.8,20.1 84.7,14 75.6,20.1 68.6,20.1 68.6,14.6 
	72.1,14.6 78.9,10 72.1,5.5 68.6,5.5 68.6,0 75.6,0 84.7,6.1 93.8,0 100.8,0 100.8,5.5 "/>
</svg>
