<svg width="281" height="34" viewBox="0 0 281 34" fill="none" xmlns="http://www.w3.org/2000/svg">
<path d="M45.7521 26.5909H80.6109V19.7682H54.9884V16.1578H78.72V11.9331H54.9884V8.32269H80.6109V1.5H45.7521V26.5909Z" fill="white"/>
<path d="M38.8653 26.6622V1.5H29.6441V19.8202H9.22119V1.5H0V26.6622H34.7171L34.7258 33.5H43.9366V26.6622H38.8653Z" fill="white"/>
<path d="M117.227 1.5L105.847 9.17832L94.4683 1.5H85.6945V8.32269H90.1233L98.6191 14.0554L90.1535 19.7682H85.6945V26.5909H94.4986L105.847 18.9324L117.197 26.5909H126V19.7682H121.541L113.075 14.0554L121.571 8.32269H126V1.5H117.227Z" fill="white"/>
<line x1="144.757" y1="26.2569" x2="169.754" y2="1.25965" stroke="white" stroke-width="0.687638"/>
<line x1="145.243" y1="1.25688" x2="170.24" y2="26.2541" stroke="white" stroke-width="0.687638"/>
<path d="M189.357 13.5L193.569 0.539999H196.278L200.49 13.5H198.537L194.658 1.674H195.144L191.31 13.5H189.357ZM191.544 10.575V8.811H198.312V10.575H191.544ZM202.285 13.5V0.539999H204.166V13.5H202.285ZM214.333 13.77C213.427 13.77 212.644 13.545 211.984 13.095C211.33 12.645 210.823 12.033 210.463 11.259C210.109 10.479 209.932 9.603 209.932 8.631C209.932 7.653 210.112 6.78 210.472 6.012C210.832 5.238 211.342 4.629 212.002 4.185C212.668 3.735 213.457 3.51 214.369 3.51C215.287 3.51 216.058 3.735 216.682 4.185C217.312 4.629 217.786 5.238 218.104 6.012C218.428 6.786 218.59 7.659 218.59 8.631C218.59 9.603 218.428 10.476 218.104 11.25C217.78 12.024 217.303 12.639 216.673 13.095C216.043 13.545 215.263 13.77 214.333 13.77ZM214.594 12.069C215.212 12.069 215.716 11.922 216.106 11.628C216.496 11.334 216.781 10.929 216.961 10.413C217.141 9.897 217.231 9.303 217.231 8.631C217.231 7.959 217.138 7.365 216.952 6.849C216.772 6.333 216.49 5.931 216.106 5.643C215.728 5.355 215.245 5.211 214.657 5.211C214.033 5.211 213.52 5.364 213.118 5.67C212.716 5.976 212.416 6.387 212.218 6.903C212.026 7.419 211.93 7.995 211.93 8.631C211.93 9.273 212.026 9.855 212.218 10.377C212.416 10.893 212.71 11.304 213.1 11.61C213.496 11.916 213.994 12.069 214.594 12.069ZM217.231 13.5V6.507H217.015V0.539999H218.905V13.5H217.231ZM225.734 13.77C224.768 13.77 223.919 13.56 223.187 13.14C222.461 12.714 221.894 12.123 221.486 11.367C221.084 10.605 220.883 9.723 220.883 8.721C220.883 7.659 221.081 6.738 221.477 5.958C221.879 5.178 222.437 4.575 223.151 4.149C223.865 3.723 224.696 3.51 225.644 3.51C226.634 3.51 227.477 3.741 228.173 4.203C228.869 4.659 229.388 5.31 229.73 6.156C230.078 7.002 230.216 8.007 230.144 9.171H228.263V8.487C228.251 7.359 228.035 6.525 227.615 5.985C227.201 5.445 226.568 5.175 225.716 5.175C224.774 5.175 224.066 5.472 223.592 6.066C223.118 6.66 222.881 7.518 222.881 8.64C222.881 9.708 223.118 10.536 223.592 11.124C224.066 11.706 224.75 11.997 225.644 11.997C226.232 11.997 226.739 11.865 227.165 11.601C227.597 11.331 227.933 10.947 228.173 10.449L230.018 11.034C229.64 11.904 229.067 12.579 228.299 13.059C227.531 13.533 226.676 13.77 225.734 13.77ZM222.269 9.171V7.704H229.208V9.171H222.269ZM235.88 13.761C234.698 13.761 233.735 13.5 232.991 12.978C232.247 12.456 231.791 11.721 231.623 10.773L233.549 10.476C233.669 10.98 233.945 11.379 234.377 11.673C234.815 11.961 235.358 12.105 236.006 12.105C236.594 12.105 237.053 11.985 237.383 11.745C237.719 11.505 237.887 11.175 237.887 10.755C237.887 10.509 237.827 10.311 237.707 10.161C237.593 10.005 237.35 9.858 236.978 9.72C236.606 9.582 236.039 9.411 235.277 9.207C234.443 8.991 233.78 8.76 233.288 8.514C232.802 8.262 232.454 7.971 232.244 7.641C232.04 7.305 231.938 6.9 231.938 6.426C231.938 5.838 232.094 5.325 232.406 4.887C232.718 4.449 233.156 4.11 233.72 3.87C234.29 3.63 234.956 3.51 235.718 3.51C236.462 3.51 237.125 3.627 237.707 3.861C238.289 4.095 238.76 4.428 239.12 4.86C239.48 5.286 239.696 5.787 239.768 6.363L237.842 6.714C237.776 6.246 237.557 5.877 237.185 5.607C236.813 5.337 236.33 5.19 235.736 5.166C235.166 5.142 234.704 5.238 234.35 5.454C233.996 5.664 233.819 5.955 233.819 6.327C233.819 6.543 233.885 6.726 234.017 6.876C234.155 7.026 234.419 7.17 234.809 7.308C235.199 7.446 235.775 7.611 236.537 7.803C237.353 8.013 238.001 8.247 238.481 8.505C238.961 8.757 239.303 9.06 239.507 9.414C239.717 9.762 239.822 10.185 239.822 10.683C239.822 11.643 239.471 12.396 238.769 12.942C238.073 13.488 237.11 13.761 235.88 13.761ZM241.994 2.187V0.36H243.875V2.187H241.994ZM241.994 13.5V3.78H243.875V13.5H241.994ZM250.583 18.09C250.061 18.09 249.554 18.009 249.062 17.847C248.576 17.685 248.132 17.445 247.73 17.127C247.328 16.815 246.995 16.428 246.731 15.966L248.468 15.084C248.678 15.498 248.978 15.801 249.368 15.993C249.758 16.185 250.169 16.281 250.601 16.281C251.135 16.281 251.591 16.185 251.969 15.993C252.347 15.807 252.632 15.525 252.824 15.147C253.022 14.769 253.118 14.301 253.112 13.743V11.025H253.337V3.78H255.002V13.761C255.002 14.019 254.993 14.265 254.975 14.499C254.957 14.733 254.924 14.967 254.876 15.201C254.738 15.855 254.474 16.395 254.084 16.821C253.7 17.247 253.208 17.565 252.608 17.775C252.014 17.985 251.339 18.09 250.583 18.09ZM250.439 13.77C249.533 13.77 248.75 13.545 248.09 13.095C247.436 12.645 246.929 12.033 246.569 11.259C246.215 10.479 246.038 9.603 246.038 8.631C246.038 7.653 246.218 6.78 246.578 6.012C246.938 5.238 247.448 4.629 248.108 4.185C248.774 3.735 249.563 3.51 250.475 3.51C251.393 3.51 252.164 3.735 252.788 4.185C253.418 4.629 253.892 5.238 254.21 6.012C254.534 6.786 254.696 7.659 254.696 8.631C254.696 9.603 254.534 10.476 254.21 11.25C253.886 12.024 253.409 12.639 252.779 13.095C252.149 13.545 251.369 13.77 250.439 13.77ZM250.7 12.069C251.318 12.069 251.822 11.922 252.212 11.628C252.602 11.334 252.887 10.929 253.067 10.413C253.247 9.897 253.337 9.303 253.337 8.631C253.337 7.959 253.244 7.365 253.058 6.849C252.878 6.333 252.596 5.931 252.212 5.643C251.834 5.355 251.351 5.211 250.763 5.211C250.139 5.211 249.626 5.364 249.224 5.67C248.822 5.976 248.522 6.387 248.324 6.903C248.132 7.419 248.036 7.995 248.036 8.631C248.036 9.273 248.132 9.855 248.324 10.377C248.522 10.893 248.816 11.304 249.206 11.61C249.602 11.916 250.1 12.069 250.7 12.069ZM264.351 13.5V8.721C264.351 8.343 264.318 7.956 264.252 7.56C264.192 7.158 264.072 6.786 263.892 6.444C263.718 6.102 263.469 5.826 263.145 5.616C262.827 5.406 262.41 5.301 261.894 5.301C261.558 5.301 261.24 5.358 260.94 5.472C260.64 5.58 260.376 5.757 260.148 6.003C259.926 6.249 259.749 6.573 259.617 6.975C259.491 7.377 259.428 7.866 259.428 8.442L258.258 8.001C258.258 7.119 258.423 6.342 258.753 5.67C259.083 4.992 259.557 4.464 260.175 4.086C260.793 3.708 261.54 3.519 262.416 3.519C263.088 3.519 263.652 3.627 264.108 3.843C264.564 4.059 264.933 4.344 265.215 4.698C265.503 5.046 265.722 5.427 265.872 5.841C266.022 6.255 266.124 6.66 266.178 7.056C266.232 7.452 266.259 7.8 266.259 8.1V13.5H264.351ZM257.52 13.5V3.78H259.203V6.588H259.428V13.5H257.52ZM193.002 26.77C192.282 26.77 191.679 26.638 191.193 26.374C190.707 26.104 190.338 25.75 190.086 25.312C189.84 24.868 189.717 24.382 189.717 23.854C189.717 23.362 189.804 22.93 189.978 22.558C190.152 22.186 190.41 21.871 190.752 21.613C191.094 21.349 191.514 21.136 192.012 20.974C192.444 20.848 192.933 20.737 193.479 20.641C194.025 20.545 194.598 20.455 195.198 20.371C195.804 20.287 196.404 20.203 196.998 20.119L196.314 20.497C196.326 19.735 196.164 19.171 195.828 18.805C195.498 18.433 194.928 18.247 194.118 18.247C193.608 18.247 193.14 18.367 192.714 18.607C192.288 18.841 191.991 19.231 191.823 19.777L190.068 19.237C190.308 18.403 190.764 17.74 191.436 17.248C192.114 16.756 193.014 16.51 194.136 16.51C195.006 16.51 195.762 16.66 196.404 16.96C197.052 17.254 197.526 17.722 197.826 18.364C197.982 18.682 198.078 19.018 198.114 19.372C198.15 19.726 198.168 20.107 198.168 20.515V26.5H196.503V24.277L196.827 24.565C196.425 25.309 195.912 25.864 195.288 26.23C194.67 26.59 193.908 26.77 193.002 26.77ZM193.335 25.231C193.869 25.231 194.328 25.138 194.712 24.952C195.096 24.76 195.405 24.517 195.639 24.223C195.873 23.929 196.026 23.623 196.098 23.305C196.2 23.017 196.257 22.693 196.269 22.333C196.287 21.973 196.296 21.685 196.296 21.469L196.908 21.694C196.314 21.784 195.774 21.865 195.288 21.937C194.802 22.009 194.361 22.081 193.965 22.153C193.575 22.219 193.227 22.3 192.921 22.396C192.663 22.486 192.432 22.594 192.228 22.72C192.03 22.846 191.871 22.999 191.751 23.179C191.637 23.359 191.58 23.578 191.58 23.836C191.58 24.088 191.643 24.322 191.769 24.538C191.895 24.748 192.087 24.916 192.345 25.042C192.603 25.168 192.933 25.231 193.335 25.231ZM202.224 26.5L199.254 16.771L201.117 16.78L203.151 23.449L205.203 16.78H206.823L208.875 23.449L210.909 16.78H212.763L209.793 26.5H208.281L206.013 19.462L203.736 26.5H202.224ZM216.574 26.77C215.854 26.77 215.251 26.638 214.765 26.374C214.279 26.104 213.91 25.75 213.658 25.312C213.412 24.868 213.289 24.382 213.289 23.854C213.289 23.362 213.376 22.93 213.55 22.558C213.724 22.186 213.982 21.871 214.324 21.613C214.666 21.349 215.086 21.136 215.584 20.974C216.016 20.848 216.505 20.737 217.051 20.641C217.597 20.545 218.17 20.455 218.77 20.371C219.376 20.287 219.976 20.203 220.57 20.119L219.886 20.497C219.898 19.735 219.736 19.171 219.4 18.805C219.07 18.433 218.5 18.247 217.69 18.247C217.18 18.247 216.712 18.367 216.286 18.607C215.86 18.841 215.563 19.231 215.395 19.777L213.64 19.237C213.88 18.403 214.336 17.74 215.008 17.248C215.686 16.756 216.586 16.51 217.708 16.51C218.578 16.51 219.334 16.66 219.976 16.96C220.624 17.254 221.098 17.722 221.398 18.364C221.554 18.682 221.65 19.018 221.686 19.372C221.722 19.726 221.74 20.107 221.74 20.515V26.5H220.075V24.277L220.399 24.565C219.997 25.309 219.484 25.864 218.86 26.23C218.242 26.59 217.48 26.77 216.574 26.77ZM216.907 25.231C217.441 25.231 217.9 25.138 218.284 24.952C218.668 24.76 218.977 24.517 219.211 24.223C219.445 23.929 219.598 23.623 219.67 23.305C219.772 23.017 219.829 22.693 219.841 22.333C219.859 21.973 219.868 21.685 219.868 21.469L220.48 21.694C219.886 21.784 219.346 21.865 218.86 21.937C218.374 22.009 217.933 22.081 217.537 22.153C217.147 22.219 216.799 22.3 216.493 22.396C216.235 22.486 216.004 22.594 215.8 22.72C215.602 22.846 215.443 22.999 215.323 23.179C215.209 23.359 215.152 23.578 215.152 23.836C215.152 24.088 215.215 24.322 215.341 24.538C215.467 24.748 215.659 24.916 215.917 25.042C216.175 25.168 216.505 25.231 216.907 25.231ZM224.078 26.5V16.78H225.752V19.138L225.518 18.832C225.638 18.52 225.794 18.235 225.986 17.977C226.178 17.713 226.4 17.497 226.652 17.329C226.898 17.149 227.171 17.011 227.471 16.915C227.777 16.813 228.089 16.753 228.407 16.735C228.725 16.711 229.031 16.726 229.325 16.78V18.544C229.007 18.46 228.653 18.436 228.263 18.472C227.879 18.508 227.525 18.631 227.201 18.841C226.895 19.039 226.652 19.279 226.472 19.561C226.298 19.843 226.172 20.158 226.094 20.506C226.016 20.848 225.977 21.211 225.977 21.595V26.5H224.078ZM234.724 26.77C233.818 26.77 233.035 26.545 232.375 26.095C231.721 25.645 231.214 25.033 230.854 24.259C230.5 23.479 230.323 22.603 230.323 21.631C230.323 20.653 230.503 19.78 230.863 19.012C231.223 18.238 231.733 17.629 232.393 17.185C233.059 16.735 233.848 16.51 234.76 16.51C235.678 16.51 236.449 16.735 237.073 17.185C237.703 17.629 238.177 18.238 238.495 19.012C238.819 19.786 238.981 20.659 238.981 21.631C238.981 22.603 238.819 23.476 238.495 24.25C238.171 25.024 237.694 25.639 237.064 26.095C236.434 26.545 235.654 26.77 234.724 26.77ZM234.985 25.069C235.603 25.069 236.107 24.922 236.497 24.628C236.887 24.334 237.172 23.929 237.352 23.413C237.532 22.897 237.622 22.303 237.622 21.631C237.622 20.959 237.529 20.365 237.343 19.849C237.163 19.333 236.881 18.931 236.497 18.643C236.119 18.355 235.636 18.211 235.048 18.211C234.424 18.211 233.911 18.364 233.509 18.67C233.107 18.976 232.807 19.387 232.609 19.903C232.417 20.419 232.321 20.995 232.321 21.631C232.321 22.273 232.417 22.855 232.609 23.377C232.807 23.893 233.101 24.304 233.491 24.61C233.887 24.916 234.385 25.069 234.985 25.069ZM237.622 26.5V19.507H237.406V13.54H239.296V26.5H237.622ZM245.531 26.761C244.349 26.761 243.386 26.5 242.642 25.978C241.898 25.456 241.442 24.721 241.274 23.773L243.2 23.476C243.32 23.98 243.596 24.379 244.028 24.673C244.466 24.961 245.009 25.105 245.657 25.105C246.245 25.105 246.704 24.985 247.034 24.745C247.37 24.505 247.538 24.175 247.538 23.755C247.538 23.509 247.478 23.311 247.358 23.161C247.244 23.005 247.001 22.858 246.629 22.72C246.257 22.582 245.69 22.411 244.928 22.207C244.094 21.991 243.431 21.76 242.939 21.514C242.453 21.262 242.105 20.971 241.895 20.641C241.691 20.305 241.589 19.9 241.589 19.426C241.589 18.838 241.745 18.325 242.057 17.887C242.369 17.449 242.807 17.11 243.371 16.87C243.941 16.63 244.607 16.51 245.369 16.51C246.113 16.51 246.776 16.627 247.358 16.861C247.94 17.095 248.411 17.428 248.771 17.86C249.131 18.286 249.347 18.787 249.419 19.363L247.493 19.714C247.427 19.246 247.208 18.877 246.836 18.607C246.464 18.337 245.981 18.19 245.387 18.166C244.817 18.142 244.355 18.238 244.001 18.454C243.647 18.664 243.47 18.955 243.47 19.327C243.47 19.543 243.536 19.726 243.668 19.876C243.806 20.026 244.07 20.17 244.46 20.308C244.85 20.446 245.426 20.611 246.188 20.803C247.004 21.013 247.652 21.247 248.132 21.505C248.612 21.757 248.954 22.06 249.158 22.414C249.368 22.762 249.473 23.185 249.473 23.683C249.473 24.643 249.122 25.396 248.42 25.942C247.724 26.488 246.761 26.761 245.531 26.761Z" fill="white"/>
<path d="M256.432 23.233C255.976 23.233 255.562 23.128 255.19 22.918C254.824 22.708 254.53 22.423 254.308 22.063C254.092 21.697 253.984 21.286 253.984 20.83C253.984 20.374 254.092 19.966 254.308 19.606C254.53 19.24 254.824 18.952 255.19 18.742C255.562 18.532 255.976 18.427 256.432 18.427C256.858 18.427 257.248 18.532 257.602 18.742C257.962 18.952 258.247 19.24 258.457 19.606C258.673 19.966 258.781 20.374 258.781 20.83C258.781 21.286 258.673 21.697 258.457 22.063C258.247 22.423 257.962 22.708 257.602 22.918C257.248 23.128 256.858 23.233 256.432 23.233Z" fill="#2F21FF"/>
</svg>
